<svg class="icon" style="width: 1em;height: 1em;vertical-align: middle;fill: currentColor;overflow: hidden;" viewBox="0 0 1024 1024" version="1.1" xmlns="http://www.w3.org/2000/svg" p-id="1801"><path d="M276.914 568.812c3.376-52.874 8.656-85.934 76.842-148.87 68.152-62.904 170.586-69.466 182.12-125.184 4.282-20.718 24.53-199.056 56.902-219.776 32.406-20.716 96.308-10.532 96.308-10.532s51.094 27.156 63.062 36.782c11.938 9.626 37.654 48.154 37.654 48.154s-13.438 58.374-28.03 61.31c-14.596 2.906-56.906-7.876-56.906-7.876s-21.03 7-16.654 36.748c4.374 29.782 35.032 83.186 32.404 134.842-2.626 51.684-48.154 122.588-48.154 122.588l6.124 298.584 36.782 8.75s8.312 12.248 7 32.404c-1.312 20.126-24.092 26.844-24.092 26.844h-70.904s-48.716-287.896-51.562-287.96c-2.842-0.062-83.714 217.338-83.714 217.338l35.874 5.25s4.376 12.126 5.126 32.06c0.374 9.75-7.752 41.438-28.312 41.312l-227.836 2.938-0.034-305.706z" fill="#424953" p-id="1802"></path><path d="M752.148 101.234c-11.968-9.626-63.062-36.782-63.062-36.782s-21.56-3.436-45.996-2.248c14.374 0.624 24.654 2.248 24.654 2.248s51.092 27.156 63.03 36.782c11.968 9.626 37.654 48.154 37.654 48.154s-12.436 54.186-26.404 60.748c7.874 1.032 15.188 1.468 19.75 0.562 14.592-2.938 28.03-61.31 28.03-61.31s-25.718-38.528-37.656-48.154zM678.586 795.586l-6.124-298.584s45.53-70.904 48.154-122.588c2.626-51.656-28.032-105.06-32.404-134.842-2.782-18.998 10.812-32.216 16.654-36.748-8.782-1.844-22.466 2.782-22.466 2.782s-19.904 4.218-15.532 33.966c4.376 29.782 35.032 83.186 32.406 134.842-2.626 51.684-48.156 122.588-48.156 122.588l6.126 298.584 36.782 8.75s8.31 12.248 7 32.404c-1.314 20.126-24.094 26.844-24.094 26.844h21.344s22.78-6.718 24.092-26.844c1.312-20.156-7-32.404-7-32.404l-36.782-8.75z" fill="#646C77" p-id="1803"></path><path d="M597.09 7.082c-17.904 53.06 0.062 104.184 0.062 104.184 23.062-58.31 81.934-40.688 81.934-40.688s-70.62-97.09-81.996-63.496z" fill="#646C77" p-id="1804"></path><path d="M687.9 237.042c-25.25-2.344-90.874-9.782-138.652-27.376-7.032 40.53-11.592 76.466-13.374 85.092a48.56 48.56 0 0 1-4.19 11.968c60.31 16.748 150.714 28.186 186.212 32.28-7.312-39.436-26.312-76.466-29.686-99.436-0.124-0.872-0.216-1.714-0.31-2.528z" fill="#F5BA45" p-id="1805"></path><path d="M666.338 234.73c0.062 0.842 0.406 3.966 0.532 4.842 3.282 22.468 21.532 58.344 29.156 96.81 8.56 1.062 15.966 1.938 21.874 2.626-7.312-39.436-26.312-76.466-29.686-99.436-0.126-0.876-0.218-1.716-0.312-2.53-25.252-2.342-21.564-2.312-21.564-2.312z" fill="#FECD57" p-id="1806"></path><path d="M703.9 853.178H276.914c-23.5 0-42.716 19.216-42.716 42.716v85.404c0 23.468 19.216 42.686 42.716 42.686H703.9c23.498 0 42.714-19.216 42.714-42.686v-85.404c0.002-23.5-19.216-42.716-42.714-42.716z" fill="#646C77" p-id="1807"></path><path d="M703.9 853.178h-21.344c23.468 0 42.688 19.216 42.688 42.716v85.404c0 23.468-19.218 42.686-42.688 42.686h21.344c23.498 0 42.714-19.216 42.714-42.686v-85.404c0.002-23.5-19.216-42.716-42.714-42.716z" fill="#798089" p-id="1808"></path></svg>